<?xml version="1.0" encoding="UTF-8" standalone="no"?>
<!-- Created with Inkscape (http://www.inkscape.org/) -->

<svg
   width="445.77002mm"
   height="468.62997mm"
   viewBox="0 0 445.77002 468.63"
   version="1.1"
   id="svg5"
   sodipodi:docname="temp.svg"
   inkscape:version="1.2.1 (9c6d41e410, 2022-07-14)"
   xml:space="preserve"
   xmlns:inkscape="http://www.inkscape.org/namespaces/inkscape"
   xmlns:sodipodi="http://sodipodi.sourceforge.net/DTD/sodipodi-0.dtd"
   xmlns="http://www.w3.org/2000/svg"
   xmlns:svg="http://www.w3.org/2000/svg"><sodipodi:namedview
     id="namedview94931"
     pagecolor="#ffffff"
     bordercolor="#000000"
     borderopacity="0.25"
     inkscape:showpageshadow="2"
     inkscape:pageopacity="0.0"
     inkscape:pagecheckerboard="0"
     inkscape:deskcolor="#d1d1d1"
     inkscape:document-units="mm"
     showgrid="false"
     inkscape:zoom="0.51449244"
     inkscape:cx="714.29622"
     inkscape:cy="736.64834"
     inkscape:window-width="1920"
     inkscape:window-height="1057"
     inkscape:window-x="1358"
     inkscape:window-y="-8"
     inkscape:window-maximized="1"
     inkscape:current-layer="svg5" /><defs
     id="defs2" /><path
     style="fill:#ffffff;stroke-width:0.254;fill-opacity:1;stroke:#000000;stroke-opacity:0"
     d="m 148.86206,445.08534 c -2.13666,-1.12448 -1.90668,5.66854 -2.05005,-60.55418 l -0.127,-58.66158 -41.02101,41.05201 c -47.619714,47.65571 -43.41684,43.8513 -46.420819,42.01976 -4.368229,-2.66335 -4.52009,-2.4458 16.292353,-23.33889 9.515808,-9.55266 17.07287,-17.28801 16.79347,-17.18963 -0.2794,0.0984 -7.4803,2.62008 -16.002001,5.6038 -8.5217,2.98368 -17.78,6.23171 -20.574,7.21781 -7.325785,2.58557 -10.287001,1.93315 -10.287001,-2.26646 0,-3.12941 -3.14417,-1.86497 55.406758,-22.28182 5.49576,-1.91638 5.49576,-1.91638 23.74834,-20.17029 l 18.25258,-18.25389 -24.12934,-0.007 c -25.105862,-0.007 -45.748201,-0.1762 -47.499079,-0.38987 -4.467459,-0.54513 -7.181807,-4.03332 -12.736498,-16.36753 -39.233121,-87.11729 -0.784865,-188.87003 86.398247,-228.651666 8.47888,-3.868913 10.92419,-4.513615 12.55101,-3.309066 3.07267,2.275106 2.1513,6.253947 -1.74813,7.549128 -1.27788,0.424444 -1.27788,0.424444 -1.27788,38.935834 0,21.46265 0.0965,38.40456 0.21807,38.27008 0.11994,-0.13271 4.9382,-8.52805 10.70724,-18.6563 16.47382,-28.92179 38.11309,-66.851641 38.62562,-67.703938 0.46601,-0.774941 0.46601,-0.774941 -1.67366,-0.487965 -7.02026,0.941568 -18.51156,-0.250126 -20.23583,-2.09854 -3.19976,-3.430125 -0.36865,-7.505339 4.56401,-6.569628 1.10968,0.210502 2.57558,0.45054 3.25757,0.53342 0.68199,0.08288 1.64003,0.208689 2.12898,0.279578 1.08157,0.156812 8.58331,0.163411 8.83634,0.0078 0.0994,-0.06112 0.80528,-0.190246 1.5687,-0.286949 10.47047,-1.326309 18.65105,-9.28806 22.85881,-22.247355 1.76221,-5.42736 5.53852,-6.948706 7.87283,-3.171701 1.88749,3.05402 -2.86082,14.794481 -8.86142,21.910351 -1.7961,2.129922 -2.26148,1.905607 4.93574,2.37904 47.51403,3.125475 93.36075,27.913705 123.4132,66.726557 3.56758,4.60757 0.66723,5.29613 16.56207,-3.93193 16.14335,-9.37235 16.58752,-9.50712 18.60057,-5.64384 1.73731,3.3341 1.40614,3.63016 -14.03327,12.54489 -15.36497,8.87174 -13.69304,7.38291 -11.74085,10.45496 22.48609,35.38508 31.35686,80.1057 24.03991,121.19364 -0.50884,2.85738 -0.50884,2.85738 7.67179,16.383 7.9535,13.15009 8.18073,13.56248 8.18454,14.85265 0.009,2.96809 -3.35643,4.91559 -5.85805,3.39022 -1.02195,-0.62314 -1.24605,-0.96279 -7.58904,-11.50089 -2.91843,-4.84861 -5.34213,-8.77974 -5.38602,-8.73585 -0.0439,0.0439 -0.5873,1.84777 -1.20757,4.00863 -27.25079,94.9346 -128.2902,147.60053 -222.05679,115.74522 -2.82563,-0.95994 -5.19521,-1.74536 -5.26574,-1.74536 -0.0705,0 -0.15896,11.47882 -0.1965,25.50846 -0.0677,25.31392 -0.0722,25.51382 -0.59195,26.2098 -1.28275,1.71791 -3.28386,2.30576 -4.91925,1.44511 z m 78.59495,-50.13121 c 46.52691,-3.18583 89.84024,-26.26751 118.65283,-63.23015 3.5182,-4.51338 9.16803,-12.6239 8.93219,-12.82248 -0.0424,-0.0357 -30.0099,-0.14559 -66.59454,-0.24425 -66.51753,-0.1794 -66.51753,-0.1794 -69.977,3.21359 -9.1645,8.9884 -15.59891,15.1783 -21.25474,20.4471 -3.40395,3.17098 -6.16135,5.7931 -6.12755,5.82688 0.0338,0.0338 0.85825,0.1856 1.83213,0.33732 5.37262,0.83703 8.73251,2.83984 16.02999,9.55548 13.71712,12.62336 18.98729,14.48112 29.84232,10.51953 3.1883,-1.1636 13.64098,-7.36069 15.88306,-9.41664 3.04932,-2.79614 7.69801,-0.22139 6.66308,3.69047 -0.85557,3.23392 -14.78677,11.86721 -22.95635,14.22623 -11.91653,3.44099 -19.74108,0.61514 -33.76098,-12.19289 -11.97198,-10.93714 -16.83526,-11.55974 -25.00266,-3.20101 -3.80233,3.89141 -5.30747,4.29781 -7.80367,2.10696 -4.27269,-3.75001 -2.42099,-6.6833 13.35089,-21.14916 25.65067,-23.52659 26.08926,-24.08138 19.05,-24.09644 -3.42265,-0.007 -16.02466,-0.0878 -28.00446,-0.17895 l -21.78147,-0.16563 0.0645,32.70321 c 0.0645,32.70318 0.0645,32.70318 1.58847,33.33295 20.04878,8.28469 47.30813,12.38573 71.374,10.73788 z m 0.762,-40.37752 c -2.62197,-0.54508 -5.01005,-3.97088 -4.46028,-6.39846 1.43087,-6.31817 9.74012,-5.54678 10.12156,0.93967 0.20645,3.51076 -2.49621,6.11678 -5.66128,5.45879 z m 130.17501,-43.8838 c 0,-0.13315 -8.14827,-13.82934 -18.10726,-30.43596 -9.95898,-16.60662 -28.10411,-46.87233 -40.3225,-67.25713 l -22.21525,-37.06326 -0.15166,39.60326 c -0.15207,39.715 -0.21572,42.46087 -1.11511,48.11226 -2.9555,18.57124 -14.16589,35.341 -30.14827,45.09922 -3.31727,2.0254 -7.07563,1.8601 42.82289,1.88354 24.58367,0.0114 44.73126,0.0547 44.77243,0.0959 0.21339,0.21339 24.46473,0.1759 24.46473,-0.0378 z m -179.73129,-2.03142 c -9.64251,-5.98637 -17.74374,-14.59098 -23.12552,-24.56241 -1.09671,-2.032 -1.09671,-2.032 -1.10096,11.95916 -0.005,16.64452 -2.23217,14.31046 13.6691,14.32545 13.35166,0.0127 13.35166,0.0127 10.55738,-1.7222 z m 43.14698,1.22613 c 45.65606,-7.35337 63.84307,-64.11774 31.04979,-96.91102 -29.32587,-29.32588 -79.75708,-18.20268 -93.8671,20.70349 -14.90952,41.11065 19.73959,83.14562 62.81731,76.20753 z m -74.99865,-62.93604 c -0.001,-61.22383 -0.0153,-63.15887 -0.46352,-62.42049 -0.25441,0.4191 -2.1253,3.67665 -4.15754,7.239 -2.03223,3.56235 -10.1104,17.71794 -17.95148,31.45687 -16.8379,29.50291 -15.19209,24.56113 -9.36701,28.12565 7.85981,4.80962 8.06171,4.99106 8.06355,7.24541 0.004,4.982 -3.27139,5.11363 -10.81164,0.43439 -3.08133,-1.91217 -5.7375,-3.51236 -5.90261,-3.556 -1.54135,-0.40734 -5.27099,8.91654 -4.03236,10.08067 6.98003,6.56031 13.98936,22.57288 11.59757,26.49426 -2.14904,3.52338 -6.3036,1.94432 -7.57811,-2.88028 -1.65992,-6.28363 -4.83945,-12.69231 -8.156141,-16.43954 -1.28194,-1.44836 -1.184636,-1.49365 -2.73672,1.27365 -1.394344,2.48608 -6.09403,10.76615 -14.637343,25.7886 -3.161236,5.55868 -5.747703,10.15926 -5.747703,10.2235 0,0.0643 16.173451,0.11681 35.940997,0.11681 h 35.94101 l -10e-4,-63.1825 z m -73.709918,50.546 c 3.926853,-6.90001 6.019994,-10.58387 14.489444,-25.50094 3.343945,-5.88962 3.164581,-5.07857 1.307434,-5.912 -4.50103,-2.01993 -11.821971,-2.71752 -18.876912,-1.79867 -5.561836,0.72438 -8.66213,-2.11443 -6.225221,-5.70015 2.717557,-3.99869 19.734496,-3.66372 29.229618,0.57539 1.458504,0.65116 1.458504,0.65116 2.073539,-0.41349 2.350544,-4.06882 4.213772,-7.40088 4.207152,-7.52373 -0.0043,-0.0797 -2.246889,-1.51595 -4.983541,-3.19167 -2.736649,-1.67571 -5.190198,-3.31941 -5.452328,-3.65266 -1.999394,-2.54181 -0.17969,-6.37784 3.026791,-6.38063 1.313081,-0.001 1.55416,0.11914 6.941884,3.46324 2.332078,1.4475 4.335968,2.62817 4.453078,2.62372 0.11711,-0.004 5.69651,-9.63422 12.39867,-21.39949 6.70216,-11.76528 16.44624,-28.85544 21.6535,-37.97813 9.46776,-16.58672 9.46776,-16.58672 9.46776,-60.3885 0,-29.392239 -0.0846,-43.801775 -0.25718,-43.801775 -1.00991,0 -13.89793,7.049333 -19.68182,10.765322 C 56.733443,136.34601 30.999563,226.70647 66.987593,301.56148 c 0.923499,1.92088 1.70924,3.4925 1.74609,3.4925 0.03685,0 2.002206,-3.40042 4.367459,-7.5565 z m 292.858058,1.5875 c 4.47015,-9.75187 8.19686,-20.66183 10.70808,-31.34804 0.80089,-3.40807 0.80089,-3.40807 -1.21996,-6.731 -1.94394,-3.19644 -21.79307,-36.03632 -25.72781,-42.56595 -1.05227,-1.74625 -3.08635,-5.1577 -4.52013,-7.581 -2.2732,-3.84197 -2.67663,-4.38989 -3.15164,-4.28026 -0.29959,0.0691 -1.51666,0.41766 -2.70456,0.77446 -1.18791,0.35681 -3.01671,0.77657 -4.064,0.9328 -1.0473,0.15623 -2.18992,0.33508 -2.53917,0.39743 -0.85191,0.15211 -8.59642,0.13467 -9.39769,-0.0212 -2.38539,-0.46392 -3.91727,-4.01259 -2.59659,-6.01512 1.1493,-1.74266 1.52951,-1.85722 6.27311,-1.89024 12.63876,-0.088 20.70893,-4.43366 28.197,-15.18377 3.53947,-5.08135 7.49897,-5.51416 8.75721,-0.95724 0.80091,2.9007 -5.96539,11.76963 -12.99515,17.03335 -1.35412,1.01395 0.14785,4.87626 3.74455,9.62904 0.21539,0.28463 23.21923,-11.81634 23.22406,-12.21682 0.009,-0.71608 -1.67445,-8.04824 -2.81074,-12.24446 -4.16169,-15.36889 -11.55987,-32.10251 -19.84391,-44.88407 -1.59832,-2.46607 -1.59832,-2.46607 -8.45558,1.49552 -33.42909,19.31272 -30.38447,17.79655 -32.6642,16.26619 -0.85816,-0.57607 -1.02011,-0.83555 -2.49194,-3.99264 -6.85955,-14.71381 -0.33287,-32.07637 16.19768,-43.08977 2.45311,-1.63437 2.56893,-1.41849 -3.64681,-6.7967 -27.6511,-23.92528 -60.89348,-37.659773 -97.21558,-40.165793 -3.31627,-0.228805 -6.13771,-0.377469 -6.26985,-0.330367 -0.13215,0.0471 2.91034,5.343438 6.7611,11.769638 3.85075,6.426199 24.94991,41.630602 46.88699,78.231992 21.93709,36.6014 50.22696,83.8073 62.86633,104.902 12.63937,21.09469 23.73007,39.58935 24.64602,41.09925 1.93919,3.19672 1.43462,3.47523 4.05318,-2.23726 z m 13.77994,-48.93166 c 1.05371,-7.32862 1.45415,-23.50974 0.7879,-31.84033 -0.30716,-3.84067 -1.03784,-10.34502 -1.17896,-10.49489 -0.12484,-0.13259 -20.32153,10.31644 -20.291,10.49783 0.0622,0.36919 20.24088,33.66077 20.34152,33.56014 0.0596,-0.0596 0.21288,-0.83487 0.34054,-1.72275 z M 157.20873,219.83699 c 5.10211,-8.47214 12.4617,-15.95803 20.87459,-21.23284 1.59043,-0.99719 2.93931,-1.85696 2.99752,-1.91061 0.0582,-0.0537 -5.91397,-0.0976 -13.2715,-0.0976 -13.37733,0 -13.37733,0 -13.36468,14.1605 0.0127,14.1605 0.0127,14.1605 0.70003,12.7635 0.37805,-0.76835 1.30687,-2.4257 2.06404,-3.683 z m 112.28528,-27.62452 c 0,-30.03751 0,-30.03751 -28.28235,-77.22496 L 212.9293,67.800061 193.03074,102.67052 c -10.94421,19.17876 -24.10565,42.24282 -29.24764,51.25347 -9.34907,16.383 -9.34907,16.383 -9.35008,25.5905 -0.001,9.2075 -0.001,9.2075 28.59067,9.2075 28.59169,0 28.59169,0 28.43755,-3.2385 -0.12683,-2.66455 -0.90071,-27.14173 -1.52783,-48.3235 -0.0765,-2.58445 -0.19136,-5.78485 -0.25521,-7.112 -0.43021,-8.9424 -0.44421,-14.6373 -0.0379,-15.42299 1.33141,-2.57467 4.85899,-2.64805 6.33272,-0.13173 0.42698,0.72904 1.16205,15.9769 1.1968,24.82572 0.006,1.40699 0.0837,1.91481 0.2542,1.651 0.13542,-0.20955 0.24797,-0.77152 0.25011,-1.24883 0.002,-0.47731 0.072,-0.79972 0.15525,-0.71648 0.1577,0.1577 5.86188,-11.0127 7.88123,-15.43369 2.62191,-5.74016 2.55528,-5.63089 3.80102,-6.23394 2.41599,-1.16956 5.18439,0.53791 5.18439,3.19759 0,1.02808 -2.50355,6.45992 -7.72119,16.75235 -2.5495,5.0292 -4.90447,9.8298 -5.23327,10.668 -0.3288,0.8382 -0.91914,2.1025 -1.31186,2.80954 -2.60796,4.69531 -2.72018,6.2343 -1.98063,27.16246 0.12835,3.6322 0.23597,7.53447 0.23916,8.67171 0.006,2.06771 0.006,2.06771 0.83129,2.20937 7.54111,1.29406 11.19859,2.20439 15.8115,3.9354 13.44364,5.04478 25.49401,15.07324 32.6323,27.15702 0.76337,1.29222 1.42006,2.3495 1.45933,2.3495 0.0392,0 0.0714,-13.51689 0.0714,-30.03752 z m -70.55658,-35.1405 c -3.44504,-1.75751 -2.40085,-7.03678 1.46528,-7.40826 3.10075,-0.29795 5.27501,2.80871 3.93787,5.62653 -0.8933,1.88248 -3.51259,2.74621 -5.40315,1.78173 z m 132.48834,-14.23854 c 6.93948,-4.0043 13.73726,-7.93156 15.10619,-8.72724 2.48895,-1.44668 2.48895,-1.44668 1.5412,-2.68894 -3.43972,-4.50857 -9.97916,-12.27375 -11.60788,-13.78363 -0.65087,-0.60338 -0.65087,-0.60338 -2.63256,0.58426 -12.49667,7.48933 -19.29127,19.8807 -16.20807,29.55887 0.92075,2.89027 -0.91249,3.5469 13.80112,-4.94332 z"
     id="path132275" /></svg>
